<?xml version="1.0"?>
<svg xmlns="http://www.w3.org/2000/svg" id="Layer_1" height="512px" viewBox="0 0 128 128" width="512px" data-name="Layer 1" class=""><g><path d="m58.77 74.94-27.5 26.83-4.46-4.46 27.4-26.73a40.825 40.825 0 0 0 4.56 4.36z" fill="#f2f2f2" data-original="#F2F2F2" class=""/><path d="m121.5 46.31a39.81 39.81 0 0 1 -64.96 30.86 40.825 40.825 0 0 1 -4.56-4.36 39.811 39.811 0 1 1 69.52-26.5z" fill="#4e8ed5" data-original="#4E8ED5" class="active-path" style="fill:#FF8C00" data-old_color="#4e8ed5"/><path d="m81.69 80.12a33.455 33.455 0 0 1 -21.36-7.6 35 35 0 0 1 -3.886-3.72 33.811 33.811 0 1 1 25.246 11.32z" fill="#f2f2f2" data-original="#F2F2F2" class=""/><path d="m43.05 94.3-27.78 27.3-8.15-8.45 27.63-27.16z" fill="#4e8ed5" data-original="#4E8ED5" class="active-path" style="fill:#FF8C00" data-old_color="#4e8ed5"/><g fill="#12304c"><path d="m117.34 32.948c.4 1.055.748 2.141 1.047 3.228a1.75 1.75 0 1 0 3.374-.93c-.327-1.187-.712-2.374-1.144-3.526a1.75 1.75 0 1 0 -3.277 1.229z" data-original="#12304C" class=""/><path d="m123.02 41.909a1.75 1.75 0 0 0 -3.48.367 38.624 38.624 0 0 1 .211 4.033 38.061 38.061 0 0 1 -62.1 29.5 39.314 39.314 0 0 1 -4.36-4.17 38.063 38.063 0 1 1 61.167-44.719 1.75 1.75 0 0 0 3.011-1.785 41.562 41.562 0 1 0 -67.883 47.565l-13 12.655-.6-.6a1.749 1.749 0 0 0 -2.465-.012l-27.627 27.157a1.75 1.75 0 0 0 -.033 2.463l8.15 8.449a1.754 1.754 0 0 0 1.236.535h.023a1.748 1.748 0 0 0 1.227-.5l9.815-9.646a1.75 1.75 0 0 0 -2.453-2.5l-8.559 8.412-5.72-5.93 25.159-24.728 5.826 5.833-10.846 10.659a1.75 1.75 0 0 0 2.453 2.5l12.1-11.9a1.749 1.749 0 0 0 .012-2.484l-.772-.773 13.151-12.8a41.554 41.554 0 0 0 66.587-33.18 42.181 42.181 0 0 0 -.23-4.401zm-83.961 45.919 12.865-12.522q.987 1.011 2.026 1.942l-12.907 12.566z" data-original="#12304C" class=""/><path d="m51.755 30.5a1.75 1.75 0 0 0 -2.325.849 35.554 35.554 0 0 0 5.713 38.621 36.7 36.7 0 0 0 4.082 3.905 35.187 35.187 0 0 0 22.465 8 35.56 35.56 0 1 0 -26.478-59.275 1.75 1.75 0 1 0 2.605 2.336 32.054 32.054 0 1 1 23.873 53.434 31.723 31.723 0 0 1 -20.253-7.207 33.272 33.272 0 0 1 -3.686-3.527 32.056 32.056 0 0 1 -5.151-34.807 1.75 1.75 0 0 0 -.845-2.329z" data-original="#12304C" class=""/></g></g> </svg>
