<?xml version="1.0"?>
<svg xmlns="http://www.w3.org/2000/svg" id="Layer_1" height="512px" viewBox="0 0 128 128" width="512px" data-name="Layer 1" class=""><g><path d="m6.5 6.5h115v115h-115z" fill="#f2f2f2" data-original="#F2F2F2" class=""/><path d="m6.5 6.5h115v17.692h-115z" fill="#4e8ed5" data-original="#4E8ED5" class="" style="fill:#FF8C00" data-old_color="#4e8ed5"/><path d="m89.833 80.372s-11.566-15.013-25.833-15.013-25.833 15.013-25.833 15.013 11.566 15.012 25.833 15.012 25.833-15.012 25.833-15.012z" fill="#4e8ed5" data-original="#4E8ED5" class="" style="fill:#FF8C00" data-old_color="#4e8ed5"/><circle cx="64" cy="80.372" fill="#4075af" r="6.435" data-original="#4075AF" class="active-path" style="fill:#A45A00" data-old_color="#4075af"/><g fill="#12304c"><path d="m64 61.109a1.75 1.75 0 0 1 -1.75-1.75v-9.051a1.75 1.75 0 0 1 3.5 0v9.052a1.75 1.75 0 0 1 -1.75 1.749z" data-original="#12304C" class=""/><path d="m78 64.782a1.75 1.75 0 0 1 -1.514-2.625l4.525-7.838a1.75 1.75 0 1 1 3.031 1.75l-4.525 7.838a1.749 1.749 0 0 1 -1.517.875z" data-original="#12304C" class=""/><path d="m50 64.782a1.749 1.749 0 0 1 -1.518-.875l-4.525-7.838a1.75 1.75 0 0 1 3.031-1.75l4.525 7.838a1.75 1.75 0 0 1 -1.513 2.625z" data-original="#12304C" class=""/><path d="m72.185 80.371a8.185 8.185 0 1 0 -8.185 8.186 8.194 8.194 0 0 0 8.185-8.186zm-12.869 0a4.685 4.685 0 1 1 4.684 4.686 4.69 4.69 0 0 1 -4.685-4.686z" data-original="#12304C" class=""/><path d="m44.889 75.874a1.751 1.751 0 0 0 -2.332-2.611 49.535 49.535 0 0 0 -5.777 6.037 1.753 1.753 0 0 0 0 2.137c.494.641 12.264 15.694 27.22 15.694s26.726-15.051 27.22-15.692a1.753 1.753 0 0 0 0-2.137c-.494-.64-12.264-15.693-27.22-15.693a27.514 27.514 0 0 0 -13.549 3.917 1.75 1.75 0 0 0 1.725 3.045 24.1 24.1 0 0 1 11.824-3.462c11.066 0 20.656 9.938 23.555 13.263-2.894 3.328-12.465 13.262-23.555 13.262-11.067 0-20.658-9.94-23.555-13.265a50.576 50.576 0 0 1 4.444-4.495z" data-original="#12304C" class=""/><path d="m121.5 56.625a1.75 1.75 0 0 0 -1.75 1.75v6.984a1.75 1.75 0 0 0 3.5 0v-6.984a1.75 1.75 0 0 0 -1.75-1.75z" data-original="#12304C" class=""/><path d="m121.5 4.75h-115a1.75 1.75 0 0 0 -1.75 1.75v115a1.75 1.75 0 0 0 1.75 1.75h115a1.75 1.75 0 0 0 1.75-1.75v-47.563a1.75 1.75 0 0 0 -3.5 0v45.813h-111.5v-111.5h111.5v14.192h-101.25a1.75 1.75 0 0 0 0 3.5h101.25v22.616a1.75 1.75 0 0 0 3.5 0v-42.058a1.75 1.75 0 0 0 -1.75-1.75z" data-original="#12304C" class=""/></g></g> </svg>
