<?xml version="1.0" encoding="iso-8859-1"?>
<!-- Generator: Adobe Illustrator 21.0.0, SVG Export Plug-In . SVG Version: 6.00 Build 0)  -->
<svg xmlns="http://www.w3.org/2000/svg" xmlns:xlink="http://www.w3.org/1999/xlink" version="1.1" id="Capa_1" x="0px" y="0px" viewBox="0 0 512 512" style="enable-background:new 0 0 512 512;" xml:space="preserve" width="512" height="512">
<g>
	<g>
		<path style="fill:#F0EEF0;" d="M342.737,339.592c17.989-20.192,29.006-46.73,29.258-75.842    c0.55-63.533-51.012-116.057-114.545-116.626c-64.653-0.579-117.185,51.917-116.666,116.555    c0.501,62.295,50.957,113.387,113.241,114.634c14.493,0.29,28.389-2.095,41.24-6.682l34.529,15.346    c6.086,2.705,12.941-1.75,12.941-8.41V339.592z"/>
		<g>
			<path style="fill:#B3E59F;" d="M72.922,354.119H47.596C25.728,354.119,8,336.392,8,314.524V222.68     c0-21.868,17.728-39.596,39.596-39.596h25.326V354.119z"/>
			<path style="fill:#95D6A4;" d="M47.596,183.084c-1.582,0-3.14,0.103-4.674,0.284v170.467c1.534,0.18,3.091,0.284,4.674,0.284     h25.326V183.084H47.596z"/>
			<path style="fill:#857E87;" d="M102.965,355.546c0,8.937-7.245,16.182-16.183,16.182l0,0c-8.938,0-16.183-7.245-16.183-16.182     V181.657c0-8.938,7.245-16.182,16.183-16.182l0,0c8.938,0,16.183,7.245,16.183,16.182V355.546z"/>
		</g>
		<g>
			<path style="fill:#B3E59F;" d="M438.078,183.084h26.325c21.868,0,39.597,17.728,39.597,39.596v91.844     c0,21.869-17.729,39.596-39.597,39.596h-26.325V183.084z"/>
			<path style="fill:#95D6A4;" d="M464.403,183.084h-26.325v0.176C458.223,185.115,474,202.052,474,222.68v91.844     c0,20.629-15.777,37.565-35.922,39.42v0.176h26.325c21.868,0,39.597-17.727,39.597-39.596V222.68     C504,200.812,486.271,183.084,464.403,183.084z"/>
			<path style="fill:#857E87;" d="M409.035,181.657c0-8.937,7.244-16.182,16.182-16.182l0,0c8.939,0,16.184,7.246,16.184,16.182     v173.889c0,8.938-7.245,16.182-16.184,16.182l0,0c-8.938,0-16.182-7.245-16.182-16.182V181.657z"/>
		</g>
		<g>
			<g>
				<path style="fill:#B3E59F;" d="M227.316,505.131c-9.011,0-16.316-7.245-16.316-16.183l0,0c0-8.938,7.305-16.182,16.316-16.182      h57.367c9.012,0,16.316,7.245,16.316,16.182l0,0c0,8.938-7.304,16.183-16.316,16.183H227.316z"/>
			</g>
		</g>
		<path style="fill:#95D6A4;" d="M284.684,472.766h-30c9.012,0,16.316,7.245,16.316,16.182c0,8.938-7.304,16.183-16.316,16.183h30    c9.012,0,16.316-7.245,16.316-16.183C301,480.011,293.696,472.766,284.684,472.766z"/>
	</g>
	<path style="fill:#DFDDE0;" d="M257.451,147.124c-7.252-0.065-14.35,0.543-21.239,1.756c51.105,9.041,91.372,52.004,94.852,106.1   c3.852,59.876-38.738,112.002-96.839,121.215c6.429,1.259,13.046,1.983,19.802,2.118c14.493,0.29,28.389-2.095,41.24-6.682   l34.529,15.346c6.086,2.705,12.941-1.75,12.941-8.41v-38.975c17.989-20.192,29.006-46.73,29.258-75.842   C372.546,200.217,320.984,147.693,257.451,147.124z"/>
</g>
<g>
	<g>
		<path d="M249.613,298.067c0,3.754-2.907,6.661-6.661,6.661H200.08c-1.928,0.026-3.945-0.665-5.208-2.18    c-2.543-2.785-2.301-6.903,0.363-9.446l35.848-32.457c6.07-5.442,6.711-15.013,1.729-21.394c-5.131-6.57-14.92-7.662-21.599-2.82    c-2.673,1.938-4.897,5.428-8.319,6.022c-3.195,0.554-6.356-1.418-7.413-4.45c-1.684-4.835,2.452-7.728,5.567-10.542    c5.45-5.086,12.595-7.509,19.499-7.509c7.872,0,15.865,3.27,21.557,9.568c5.087,5.45,7.509,12.595,7.509,19.499    c0,7.872-3.27,15.865-9.567,21.557l-22.89,20.71h25.796C246.707,291.285,249.613,294.313,249.613,298.067z"/>
		<path d="M317.795,282.202c0,3.754-3.028,6.661-6.782,6.661h-1.211v9.204c0,3.754-2.907,6.661-6.661,6.661    s-6.661-2.907-6.661-6.661v-9.204h-37.907c-5.625,0.193-8.923-6.391-5.449-10.779c1.543-1.918,44.303-55.213,44.807-55.706    c0.419-0.411,0.958-0.953,1.457-1.276c4.371-2.827,10.416,0.128,10.416,5.511v48.928h1.211    C314.767,275.541,317.795,278.568,317.795,282.202z M296.479,245.627l-24.101,29.914h24.101V245.627z"/>
	</g>
	<path d="M472.031,175.741C453.768,73.056,358.852,0,255.999,0C153.145,0,58.233,73.058,39.968,175.74   C17.353,179.27,0,198.743,0,222.168V247c0,9.673,15,9.673,15,0v-24.833c0-17.646,14.511-32.002,32.348-32.002H63v155.629H47.348   C29.511,345.795,15,331.439,15,313.794V285c0-9.673-15-9.673-15,0v28.794c0,25.917,21.24,47.001,47.348,47.001H63.8   c6.955,25.969,46.771,20.858,46.771-6.077V181.243c0-26.888-39.803-32.091-46.771-6.077h-8.458   C73.763,81.084,161.489,15,255.999,15s182.237,66.083,200.658,160.166H448.2c-6.955-25.968-46.772-20.857-46.772,6.077v173.475   c0,26.889,39.805,32.093,46.772,6.077h8.358c-13.459,71.272-78.608,117.733-149.404,119.975   c-3.188-9.326-12.077-16.057-22.524-16.057h-57.26c-12.887,0-23.786,10.715-23.786,23.644S214.483,512,227.37,512h57.26   c10.51,0,19.444-6.813,22.582-16.227c79.321-2.338,151.206-55.627,164.677-135.527C494.573,356.777,512,337.268,512,313.794   v-91.626C512,198.743,494.646,179.27,472.031,175.741z M78,181.243c0-11.158,17.571-11.165,17.571,0v173.475   c0,11.16-17.571,11.166-17.571,0V181.243z M284.63,497h-57.26c-11.297,0-11.305-17.287,0-17.287h57.26   C295.928,479.713,295.936,497,284.63,497z M434,354.718c0,11.16-17.572,11.166-17.572,0V181.243c0-11.159,17.572-11.165,17.572,0   V354.718z M497,313.794c0,17.646-14.512,32.001-32.35,32.001H449V190.166h15.65c17.838,0,32.35,14.356,32.35,32.002V313.794z"/>
	<path d="M294.774,378.806l45.101,19.87c4.869,2.147,10.523-1.56,10.523-6.863v-50.187c19.015-22.185,29.451-50.3,29.451-79.504   c0-25.716-7.931-50.342-22.934-71.217c-5.642-7.857-17.826,0.9-12.18,8.754c13.158,18.309,20.113,39.908,20.113,62.463   c0,26.465-9.776,51.917-27.529,71.667c-1.237,1.377-1.922,3.163-1.922,5.014v41.511l-37.25-16.411   c-1.747-0.771-3.724-0.844-5.524-0.208c-11.744,4.155-24.066,6.261-36.624,6.261c-60.019,0-108.848-48.374-108.848-107.834   S195.981,154.287,256,154.287c22.382,0,43.877,6.674,62.161,19.301c7.959,5.496,16.483-6.846,8.523-12.343   C305.883,146.88,281.44,139.287,256,139.287c-68.29,0-123.848,55.103-123.848,122.834S187.71,384.955,256,384.955   C269.254,384.955,282.282,382.888,294.774,378.806z"/>
</g>















</svg>
