<?xml version="1.0"?>
<svg xmlns="http://www.w3.org/2000/svg" xmlns:xlink="http://www.w3.org/1999/xlink" version="1.1" id="Capa_1" x="0px" y="0px" viewBox="0 0 496 496" style="enable-background:new 0 0 496 496;" xml:space="preserve" width="512px" height="512px" class=""><g><circle style="fill:#FEA82F;" cx="104" cy="112" r="96" data-original="#FEA82F"/><path style="fill:#FF8031;" d="M104,192c-50.32,0-91.52-38.736-95.6-88c-0.216,2.648-0.4,5.296-0.4,8c0,53.016,42.984,96,96,96  s96-42.984,96-96c0-2.704-0.184-5.352-0.4-8C195.52,153.264,154.32,192,104,192z" data-original="#FF8031"/><rect x="328" y="264" style="fill:#FEA82F;" width="128" height="224" data-original="#FEA82F"/><g>
	<rect x="328" y="424" style="fill:#FF8031;" width="128" height="32" data-original="#FF8031"/>
	<rect x="328" y="360" style="fill:#FF8031;" width="128" height="32" data-original="#FF8031"/>
	<rect x="328" y="296" style="fill:#FF8031;" width="128" height="32" data-original="#FF8031"/>
</g><g>
	<rect x="168" y="328" style="fill:#FEA82F;" width="128" height="160" data-original="#FEA82F"/>
	<rect x="8" y="392" style="fill:#FEA82F;" width="128" height="96" data-original="#FEA82F"/>
</g><path style="fill:#FCD770;" d="M32,344l200-160l72,40L456,72v48c0,8.84,7.16,16,16,16l0,0c8.84,0,16-7.16,16-16V8H376  c-8.84,0-16,7.16-16,16l0,0c0,8.84,7.16,16,16,16h56L296,176l-64-40L8,311.952L32,344z" data-original="#FCD770"/><g>
	<rect x="168" y="424" style="fill:#FF8031;" width="128" height="32" data-original="#FF8031"/>
	<rect x="8" y="424" style="fill:#FF8031;" width="128" height="32" data-original="#FF8031"/>
	<rect x="168" y="360" style="fill:#FF8031;" width="128" height="32" data-original="#FF8031"/>
</g><polygon style="fill:#FFC729;" points="56,274.248 8,311.952 32,344 56,324.8 " data-original="#FFC729"/><path d="M104,72c8.824,0,16,7.176,16,16h16c0-14.864-10.232-27.288-24-30.864V40H96v17.136c-13.768,3.576-24,16-24,30.864  c0,17.648,14.352,32,32,32c8.824,0,16,7.176,16,16s-7.176,16-16,16s-16-7.176-16-16H72c0,14.864,10.232,27.288,24,30.864V184h16  v-17.136c13.768-3.576,24-16,24-30.864c0-17.648-14.352-32-32-32c-8.824,0-16-7.176-16-16S95.176,72,104,72z" data-original="#000000" class="active-path" style="fill:#12304C" data-old_color="#000000"/><path d="M0,416v16v16v16v32h144v-32v-16v-16v-16v-32H0V416z M128,480H16v-16h112V480z M128,448H16v-16h112V448z M16,400h112v16H16  V400z" data-original="#000000" class="active-path" style="fill:#12304C" data-old_color="#000000"/><path d="M160,352v16v16v16v16v16v16v8v40h144v-40v-8v-16v-16v-16v-16v-16v-16v-32H160V352z M288,448h-80v16h80v16H176v-16h16v-16  h-16v-16h112V448z M288,416H176v-16h112V416z M288,384H176v-16h112V384z M176,336h112v16H176V336z" data-original="#000000" class="active-path" style="fill:#12304C" data-old_color="#000000"/><path d="M320,288v16v16v8v24v16v16v16v16v16v16v16v32h144v-32v-16v-16v-16v-16v-16v-16v-16v-24v-8v-16v-16v-32H320V288z M448,480  H336v-16h112V480z M448,448H336v-16h112V448z M448,416H336v-16h112V416z M448,384H336v-16h112V384z M448,320h-16v16h16v16H336v-16  h80v-16h-80v-16h112V320z M336,272h112v16H336V272z" data-original="#000000" class="active-path" style="fill:#12304C" data-old_color="#000000"/><path d="M376,0c-13.232,0-24,10.768-24,24s10.768,24,24,24h36.688l-117.84,117.84l-63.368-39.608l-30.976,24.328  C205.288,138.624,208,125.632,208,112C208,54.656,161.344,8,104,8S0,54.656,0,112s46.656,104,104,104  c4.992,0,9.864-0.472,14.672-1.16L3.056,305.656l9.888,12.584L232.52,145.76l64.632,40.392L451.312,32H376c-4.416,0-8-3.592-8-8  s3.584-8,8-8h104v104c0,4.408-3.584,8-8,8s-8-3.592-8-8V52.688L302.608,214.072L231.192,174.4L27,337.752l10,12.496L232.808,193.6  l72.584,40.328L448,91.312V120c0,13.232,10.768,24,24,24s24-10.768,24-24V0H376z M16,112c0-48.52,39.48-88,88-88s88,39.48,88,88  s-39.48,88-88,88S16,160.52,16,112z" data-original="#000000" class="active-path" style="fill:#12304C" data-old_color="#000000"/><rect x="32" y="104" width="16" height="16" data-original="#000000" class="active-path" style="fill:#12304C" data-old_color="#000000"/><rect x="160" y="104" width="16" height="16" data-original="#000000" class="active-path" style="fill:#12304C" data-old_color="#000000"/></g> </svg>
