<svg height="512pt" viewBox="0 -51 512.0001 512" width="512pt" xmlns="http://www.w3.org/2000/svg"><path d="m388.878906 10 113.121094 113.140625-50.558594 50.570313-113.132812-116.070313zm0 0" fill="#5c9cee"/><path d="m190.699219 75.558594-128.109375 128.132812-52.589844-52.550781 128.140625-128.140625s31.820313 31.820312 52.558594 52.558594zm0 0" fill="#ed5575"/><path d="m451.441406 173.710938-113.132812-116.070313c-10.929688 10.929687-22.828125 17.070313-38.289063 17.070313-20.761719 0-37.980469 5.398437-52.660156 20.078124l-5.359375 5.359376-5.359375-5.359376c-13.222656-13.21875-27.429687-17.828124-45.941406-19.230468l-128.109375 128.132812 37.988281 37.878906-10.609375 10.609376c-9.757812 9.761718-9.757812 25.589843 0 35.351562 9.769531 9.757812 25.589844 9.757812 35.359375 0-9.769531 9.757812-9.769531 25.589844 0 35.359375 9.761719 9.761719 25.589844 9.761719 35.351563 0-9.761719 9.761719-9.761719 25.589844 0 35.351563 9.769531 9.757812 25.589843 9.757812 35.359374 0-9.769531 9.757812-9.769531 25.589843 0 35.359374 9.761719 9.757813 25.589844 9.757813 35.351563 0l10.609375-10.609374 10.609375 10.609374c9.761719 9.757813 25.589844 9.757813 35.351563 0 9.769531-9.769531 9.769531-25.601562 0-35.359374 9.757812 9.757812 25.597656 9.757812 35.359374 0 9.757813-9.761719 9.757813-25.589844 0-35.351563 9.757813 9.757813 25.589844 9.761719 35.347657 0 9.773437-9.769531 9.773437-25.601563 0-35.359375 9.773437 9.757812 25.589843 9.757812 35.363281 0 9.757812-9.761719 9.757812-25.589844 0-35.351562l-10.613281-10.609376c1.394531-1.386718-11.253907 11.230469 68.023437-67.859374zm0 0" fill="#ffcebf"/><path d="m408.378906 77.921875c3.902344-3.910156 3.902344-10.242187 0-14.140625-3.910156-3.910156-10.238281-3.910156-14.140625 0-3.910156 3.898438-3.910156 10.230469 0 14.140625 3.902344 3.898437 10.230469 3.898437 14.140625 0zm0 0"/><path d="m130.488281 98.628906c3.902344-3.898437 3.902344-10.230468 0-14.140625-3.910156-3.898437-10.238281-3.898437-14.140625 0-3.910156 3.910157-3.910156 10.242188 0 14.140625 3.902344 3.910156 10.230469 3.910156 14.140625 0zm0 0"/><path d="m71.640625 156.210938 29.929687-29.941407c3.90625-3.90625 3.902344-10.234375 0-14.140625-3.90625-3.90625-10.238281-3.902344-14.144531 0l-29.929687 29.941406c-3.902344 3.90625-3.902344 10.238282.003906 14.140626 3.902344 3.90625 10.234375 3.90625 14.140625 0zm0 0"/><path d="m441.367188 127.210938c3.90625 3.90625 10.238281 3.90625 14.144531 0 3.90625-3.902344 3.90625-10.234376 0-14.140626l-19.949219-19.949218c-3.90625-3.90625-10.238281-3.90625-14.144531 0-3.902344 3.902344-3.902344 10.234375 0 14.140625zm0 0"/><path d="m509.070312 116.070312-113.121093-113.140624c-3.820313-3.824219-9.992188-3.917969-13.925781-.207032-8.785157 8.277344-50.078126 47.164063-50.675782 47.746094-.035156.035156-.074218.066406-.109375.101562-9.78125 9.78125-19.410156 14.140626-31.222656 14.140626-24.148437 0-42.648437 6.820312-58.011719 21.371093-12.597656-11.929687-26.875-18.097656-46.800781-20.15625l-49.992187-49.996093c-3.90625-3.90625-10.238282-3.90625-14.144532 0l-128.136718 128.140624c-3.804688 3.800782-3.929688 9.941407-.222657 13.898438.078125.082031.144531.164062.222657.242188.125.128906 83.382812 83.253906 83.5 83.367187l-3.53125 3.53125c-13.671876 13.671875-13.679688 35.8125.003906 49.496094 6.476562 6.46875 15.375 10.3125 25.109375 10.214843-.105469 9.605469 3.605469 18.5 10.246093 25.140626 6.746094 6.746093 15.761719 10.324218 25.109376 10.226562-.101563 9.597656 3.605468 18.488281 10.246093 25.128906 6.476563 6.46875 15.371094 10.3125 25.109375 10.214844-.105468 9.605469 3.605469 18.5 10.246094 25.140625 13.644531 13.644531 35.84375 13.644531 49.492188 0l3.539062-3.539063 3.539062 3.539063c13.644532 13.644531 35.84375 13.644531 49.492188 0 6.625-6.625 10.34375-15.503906 10.25-25.121094 9.550781.097657 18.449219-3.578125 25.109375-10.238281 6.914063-6.914062 10.320313-16.027344 10.226563-25.109375 9.695312.101563 18.554687-3.671875 25.125-10.242187 6.652343-6.648438 10.355468-15.558594 10.246093-25.140626 9.292969.09375 18.328125-3.4375 25.113281-10.21875 13.675782-13.675781 13.675782-35.8125 0-49.492187l-3.527343-3.527344c69.722656-69.644531-18.476563 18.625 111.496093-111.371093 3.90625-3.90625 3.90625-10.234376 0-14.140626zm-484.925781 35.066407 113.996094-113.992188 38.417969 38.417969-113.972656 113.988281zm72.894531 129.324219c-5.859374-5.859376-5.859374-15.347657 0-21.210938l35.359376-35.359375c5.851562-5.847656 15.363281-5.84375 21.210937 0 5.871094 5.875 5.871094 15.347656 0 21.21875l-35.347656 35.347656c-5.851563 5.84375-15.375 5.84375-21.222657.003907zm35.359376 35.359374c-5.863282-5.867187-5.871094-15.351562 0-21.21875l35.351562-35.351562c5.871094-5.867188 15.347656-5.871094 21.21875 0 5.847656 5.847656 5.871094 15.339844 0 21.207031-.003906.003907-.003906.003907-.003906.007813l-35.355469 35.355468c-5.847656 5.847657-15.363281 5.847657-21.210937 0zm35.351562 35.347657c-5.859375-5.855469-5.859375-15.347657 0-21.207031l35.359375-35.359376c5.847656-5.847656 15.359375-5.847656 21.214844.007813 5.773437 5.761719 5.945312 15.253906-.003907 21.207031 0 0 0 0-.003906.003906l-35.34375 35.34375c-5.851562 5.847657-15.375 5.847657-21.222656.003907zm35.359375 35.363281c-5.863281-5.867188-5.871094-15.351562 0-21.21875l35.351563-35.351562c5.863281-5.863282 15.347656-5.871094 21.214843 0 5.902344 5.902343 5.816407 15.398437 0 21.210937l-35.355469 35.359375c-5.851562 5.84375-15.363281 5.84375-21.210937 0zm77.777344 0c-5.84375 5.847656-15.359375 5.847656-21.207031 0l-3.539063-3.539062 17.679687-17.679688c1.195313-1.195312 2.273438-2.472656 3.273438-3.796875l3.789062 3.792969c.003907 0 .003907 0 .007813.003906 0 0 .003906.003906.003906.003906 5.863281 5.863282 5.863281 15.34375-.007812 21.214844zm106.074219-106.074219c-5.851563 5.84375-15.371094 5.84375-21.21875 0l-45.960938-45.957031c-3.90625-3.90625-10.238281-3.90625-14.144531 0-3.902344 3.902344-3.902344 10.234375 0 14.140625l45.964843 45.964844c5.863282 5.859375 5.867188 15.34375-.003906 21.214843-5.871094 5.871094-15.359375 5.847657-21.207031 0l-45.960937-45.972656c-3.902344-3.902344-10.234376-3.902344-14.140626 0-3.90625 3.90625-3.90625 10.238282-.003906 14.144532l45.960938 45.96875c5.847656 5.847656 5.847656 15.363281 0 21.207031-2.828125 2.832031-6.597656 4.394531-10.609375 4.394531-9.503907 0-12.566407-7.484375-21.578125-15.363281-.089844-9.210938-3.714844-17.855469-10.234375-24.375-6.632813-6.640625-15.515625-10.347657-25.113281-10.253907.097656-9.613281-3.625-18.496093-10.25-25.113281-6.914063-6.914062-16.027344-10.316406-25.109376-10.222656.199219-19.722656-15.773437-35.574219-35.351562-35.371094.097656-9.714843-3.699219-18.5625-10.25-25.113281-13.644531-13.648438-35.847656-13.648438-49.492188 0l-17.6875 17.6875-23.828124-23.757812 117.695312-117.714844c14.574219 1.664062 24.386719 5.855468 33.382812 14.21875l-28.253906 28.25c-15.582031 15.59375-15.582031 40.96875.003906 56.570312 15.597657 15.585938 40.976563 15.589844 56.570313-.003906l28.289063-28.285156c18.28125 18.285156 89.203124 89.210937 102.527343 102.539062 5.847657 5.84375 5.847657 15.359375.003907 21.203125zm-3.53125-53.019531-84.859376-84.863281 7.070313-7.070313c3.90625-3.90625 3.90625-10.238281 0-14.144531-3.90625-3.902344-10.234375-3.902344-14.144531 0l-49.5 49.503906c-7.792969 7.792969-20.488282 7.792969-28.285156 0-7.792969-7.800781-7.792969-20.492187-.003907-28.289062 10.257813-10.253907 30.476563-30.46875 40.722657-40.710938 11.859374-11.859375 25.921874-17.152343 45.585937-17.152343 14.144531 0 26.355469-4.25 37.796875-13.25l99.574219 102.160156c-65.089844 64.921875-52.242188 52.105468-53.957031 53.816406zm68.101562-67.960938-98.960938-101.53125 36.101563-34.011718 99.1875 99.207031zm0 0"/></svg>