<?xml version="1.0"?>
<svg xmlns="http://www.w3.org/2000/svg" id="Layer_1" height="512px" viewBox="0 0 128 128" width="512px" data-name="Layer 1" class=""><g><path d="m120.82 72.85a57.931 57.931 0 0 0 0-17.7h-18.01a39.768 39.768 0 0 0 -5.11-12.34l12.73-12.73a57.532 57.532 0 0 0 -12.51-12.51l-12.73 12.73a39.766 39.766 0 0 0 -12.34-5.11v-18.01a57.936 57.936 0 0 0 -17.7 0v18.01a39.766 39.766 0 0 0 -12.34 5.11l-12.73-12.73a57.532 57.532 0 0 0 -12.51 12.51l12.73 12.73a39.768 39.768 0 0 0 -5.11 12.34h-18.01a57.931 57.931 0 0 0 0 17.7h18.01a39.767 39.767 0 0 0 5.11 12.34l-12.73 12.73a57.53 57.53 0 0 0 12.51 12.51l12.73-12.73a39.766 39.766 0 0 0 12.34 5.11v18.01a57.936 57.936 0 0 0 17.7 0v-18.01a39.766 39.766 0 0 0 12.34-5.11l12.73 12.73a57.53 57.53 0 0 0 12.51-12.51l-12.73-12.73a39.767 39.767 0 0 0 5.11-12.34zm-56.82 13.26a22.11 22.11 0 1 1 22.11-22.11 22.111 22.111 0 0 1 -22.11 22.11z" fill="#4e8ed5" data-original="#4E8ED5" class="active-path" style="fill:#FF8C00" data-old_color="#4e8ed5"/><g fill="#12304c"><path d="m92.107 65.75a1.75 1.75 0 0 1 -1.75-1.75 26.32 26.32 0 0 0 -9.436-20.192 1.75 1.75 0 0 1 2.25-2.68 29.8 29.8 0 0 1 10.686 22.872 1.75 1.75 0 0 1 -1.75 1.75z" data-original="#12304C" class=""/><path d="m87.857 64a23.854 23.854 0 1 0 -8.306 18.094 1.751 1.751 0 1 0 -2.283-2.654 20.358 20.358 0 1 1 7.089-15.44 1.75 1.75 0 0 0 3.5 0z" data-original="#12304C" class=""/><path d="m85.446 69.664a1.748 1.748 0 0 0 -2.229 1.073 20.255 20.255 0 0 1 -1.623 3.513 1.75 1.75 0 1 0 3.021 1.766 23.7 23.7 0 0 0 1.9-4.122 1.75 1.75 0 0 0 -1.069-2.23z" data-original="#12304C" class=""/><path d="m122.55 54.882a1.751 1.751 0 0 0 -1.73-1.482h-16.64a41.166 41.166 0 0 0 -4.28-10.319l11.763-11.764a1.749 1.749 0 0 0 .176-2.27 59.2 59.2 0 0 0 -12.887-12.89 1.753 1.753 0 0 0 -2.27.176l-11.763 11.767a41.166 41.166 0 0 0 -10.319-4.281v-16.639a1.751 1.751 0 0 0 -1.482-1.73 59.968 59.968 0 0 0 -18.236 0 1.751 1.751 0 0 0 -1.482 1.73v16.64a41.166 41.166 0 0 0 -10.319 4.28l-11.764-11.767a1.751 1.751 0 0 0 -2.27-.176 59.2 59.2 0 0 0 -12.89 12.891 1.749 1.749 0 0 0 .176 2.27l4.205 4.205a1.75 1.75 0 0 0 2.475-2.475l-3.131-3.131a55.657 55.657 0 0 1 10.035-10.035l11.66 11.66a1.75 1.75 0 0 0 2.171.243 37.675 37.675 0 0 1 11.79-4.885 1.751 1.751 0 0 0 1.362-1.708v-16.492a56.632 56.632 0 0 1 14.2 0v16.492a1.751 1.751 0 0 0 1.362 1.708 37.675 37.675 0 0 1 11.79 4.886 1.752 1.752 0 0 0 2.171-.243l11.66-11.66a55.657 55.657 0 0 1 10.035 10.035l-11.66 11.66a1.751 1.751 0 0 0 -.243 2.171 37.675 37.675 0 0 1 4.886 11.79 1.751 1.751 0 0 0 1.707 1.362h16.492a56.327 56.327 0 0 1 0 14.2h-16.492a1.751 1.751 0 0 0 -1.707 1.362 37.675 37.675 0 0 1 -4.886 11.79 1.751 1.751 0 0 0 .243 2.171l11.66 11.66a55.657 55.657 0 0 1 -10.035 10.035l-11.66-11.66a1.752 1.752 0 0 0 -2.171-.243 37.675 37.675 0 0 1 -11.79 4.886 1.751 1.751 0 0 0 -1.362 1.707v16.491a56.632 56.632 0 0 1 -14.2 0v-16.492a1.751 1.751 0 0 0 -1.362-1.707 37.675 37.675 0 0 1 -11.79-4.886 1.749 1.749 0 0 0 -2.171.243l-11.66 11.66a55.657 55.657 0 0 1 -10.035-10.035l11.66-11.66a1.751 1.751 0 0 0 .243-2.171 37.675 37.675 0 0 1 -4.885-11.79 1.751 1.751 0 0 0 -1.708-1.362h-16.492a56.327 56.327 0 0 1 0-14.2h16.492a1.751 1.751 0 0 0 1.708-1.362 37.675 37.675 0 0 1 4.886-11.79 1.751 1.751 0 0 0 -.243-2.171l-3.214-3.214a1.75 1.75 0 0 0 -2.475 2.475l2.246 2.243a41.166 41.166 0 0 0 -4.281 10.319h-16.639a1.751 1.751 0 0 0 -1.73 1.482 59.72 59.72 0 0 0 0 18.236 1.751 1.751 0 0 0 1.73 1.482h16.64a41.166 41.166 0 0 0 4.28 10.319l-11.767 11.764a1.749 1.749 0 0 0 -.176 2.27 59.2 59.2 0 0 0 12.891 12.891 1.75 1.75 0 0 0 2.27-.176l11.763-11.768a41.166 41.166 0 0 0 10.319 4.281v16.64a1.751 1.751 0 0 0 1.481 1.729 59.72 59.72 0 0 0 18.236 0 1.751 1.751 0 0 0 1.483-1.73v-16.64a41.166 41.166 0 0 0 10.319-4.28l11.764 11.763a1.751 1.751 0 0 0 2.27.176 59.2 59.2 0 0 0 12.891-12.891 1.749 1.749 0 0 0 -.176-2.27l-11.768-11.759a41.166 41.166 0 0 0 4.281-10.319h16.64a1.751 1.751 0 0 0 1.729-1.481 59.72 59.72 0 0 0 0-18.236z" data-original="#12304C" class=""/></g></g> </svg>
