<svg height="512pt" viewBox="-21 0 512 512" width="512pt" xmlns="http://www.w3.org/2000/svg"><path d="m352 384v64l-53.332031 53.332031h-277.335938c-5.886719 0-10.664062-4.777343-10.664062-10.664062v-469.335938c0-5.886719 4.777343-10.664062 10.664062-10.664062h320c5.890625 0 10.667969 4.777343 10.667969 10.664062v85.335938" fill="#7ecffb"/><path d="m352 416h-85.332031v85.332031h32l53.332031-53.332031zm0 0" fill="#bae4fb"/><path d="m74.667969 96h213.332031v128h-213.332031zm0 0" fill="#bae4fb"/><path d="m362.667969 106.667969v-85.335938c0-11.765625-9.570313-21.332031-21.335938-21.332031h-320c-11.765625 0-21.332031 9.566406-21.332031 21.332031v469.335938c0 11.765625 9.566406 21.332031 21.332031 21.332031h277.335938c2.835937 0 5.546875-1.121094 7.539062-3.125l53.335938-53.332031c2.003906-1.996094 3.125-4.707031 3.125-7.542969v-64h-21.335938v21.332031h-74.664062c-5.898438 0-10.667969 4.769531-10.667969 10.667969v74.667969h-234.667969v-469.335938h320v85.335938zm-85.335938 320h64v16.917969l-47.082031 47.082031h-16.917969zm0 0"/><path d="m234.667969 234.667969h-160c-5.898438 0-10.667969-4.769531-10.667969-10.667969v-128c0-5.898438 4.769531-10.667969 10.667969-10.667969h224v21.335938h-213.335938v106.664062h149.335938zm0 0"/><path d="m64 277.332031h106.667969v21.335938h-106.667969zm0 0"/><path d="m192 277.332031h21.332031v21.335938h-21.332031zm0 0"/><path d="m64 341.332031h64v21.335938h-64zm0 0"/><path d="m149.332031 341.332031h85.335938v21.335938h-85.335938zm0 0"/><path d="m64 405.332031h106.667969v21.335938h-106.667969zm0 0"/><path d="m192 405.332031h42.667969v21.335938h-42.667969zm0 0"/><path d="m266.667969 138.667969h192v213.332031h-192zm0 0" fill="#fff"/><path d="m266.667969 288.886719 53.332031-64.886719 53.332031 85.332031 42.667969-42.664062 42.667969 42.664062v42.667969h-192zm0 0" fill="#fdd55b"/><path d="m458.667969 128h-192c-5.898438 0-10.667969 4.769531-10.667969 10.667969v213.332031c0 5.898438 4.769531 10.667969 10.667969 10.667969h192c5.898437 0 10.664062-4.769531 10.664062-10.667969v-213.332031c0-5.898438-4.765625-10.667969-10.664062-10.667969zm-10.667969 21.332031v134.253907l-24.457031-24.460938c-4.171875-4.171875-10.914063-4.171875-15.085938 0l-33.183593 33.183594-46.226563-73.972656c-1.816406-2.902344-4.929687-4.769532-8.355469-4.992188-3.453125-.191406-6.75 1.214844-8.925781 3.871094l-34.433594 41.898437v-109.78125zm0 192h-170.667969v-48.628906l41.496094-50.464844 45.46875 72.75c1.71875 2.75 4.609375 4.574219 7.832031 4.9375 3.273438.4375 6.453125-.757812 8.746094-3.050781l35.125-35.125 32 32zm0 0"/><path d="m405.332031 202.667969c0 11.78125-9.550781 21.332031-21.332031 21.332031s-21.332031-9.550781-21.332031-21.332031c0-11.785157 9.550781-21.335938 21.332031-21.335938s21.332031 9.550781 21.332031 21.335938zm0 0" fill="#fdd55b"/><path d="m384 234.667969c-17.644531 0-32-14.359375-32-32 0-17.644531 14.355469-32 32-32s32 14.355469 32 32c0 17.640625-14.355469 32-32 32zm0-42.667969c-5.886719 0-10.667969 4.777344-10.667969 10.667969 0 5.886719 4.78125 10.664062 10.667969 10.664062s10.667969-4.777343 10.667969-10.664062c0-5.890625-4.78125-10.667969-10.667969-10.667969zm0 0"/></svg>