<?xml version="1.0" encoding="iso-8859-1"?>
<!-- Generator: Adobe Illustrator 19.0.0, SVG Export Plug-In . SVG Version: 6.00 Build 0)  -->
<svg version="1.1" id="Capa_1" xmlns="http://www.w3.org/2000/svg" xmlns:xlink="http://www.w3.org/1999/xlink" x="0px" y="0px"
	 viewBox="0 0 496 496" style="enable-background:new 0 0 496 496;" xml:space="preserve">
<path style="fill:#8C95A4;" d="M456,488H40c-17.672,0-32-14.328-32-32v-64h480v64C488,473.672,473.672,488,456,488z"/>
<polygon style="fill:#AFB8C9;" points="488,392 424,184 400,184 104,184 72,184 8,392 "/>
<g>
	<polygon style="fill:#798699;" points="80,360 208,360 208,280 96,280 	"/>
	<polygon style="fill:#798699;" points="416,360 288,360 288,280 400,280 	"/>
</g>
<g>
	<polygon style="fill:#ECECEC;" points="400,248 256,248 264,168 392,168 	"/>
	<polygon style="fill:#ECECEC;" points="104,240 104,80 120,88 136,80 152,88 168,80 184,88 200,80 200,240 	"/>
</g>
<rect x="312" y="120" style="fill:#8C95A4;" width="32" height="48"/>
<rect x="312" y="112" style="fill:#798699;" width="32" height="24"/>
<rect x="232" y="8" style="fill:#ECECEC;" width="192" height="112"/>
<rect x="264" y="40" style="fill:#39C3FC;" width="128" height="48"/>
<rect x="104" y="224" style="fill:#B6C1CE;" width="96" height="16"/>
<path style="fill:#798699;" d="M32,488h432c13.256,0,24-10.744,24-24v-72H8v72C8,477.256,18.744,488,32,488z"/>
<polygon style="fill:#B6C1CE;" points="257.6,232 256,248 400,248 398.4,232 "/>
<polygon style="fill:#148CE0;" points="368,40 392,40 392,88 352,88 "/>
<path d="M492.112,378.152L429.904,176H400.84l-1.6-16H352v-32h80V0H224v128h80v32h-47.24l-1.6,16H208V67.056l-24,12l-16-8l-16,8
	l-16-8l-16,8l-24-12V176H66.096L3.888,378.152C1.312,386.552,0,395.256,0,404.032V464c0,17.648,14.352,32,32,32h432
	c17.648,0,32-14.352,32-32v-59.968C496,395.256,494.688,386.552,492.112,378.152z M240,16h176v96H240V16z M320,128h16v32h-16V128z
	 M271.24,176h113.512l6.4,64H264.84L271.24,176z M120,96.944l16-8l16,8l16-8l16,8l8-4V232h-80V92.944L120,96.944z M480,464
	c0,8.824-7.176,16-16,16H32c-8.824,0-16-7.176-16-16v-59.968c0-7.176,1.072-14.304,3.184-21.176L77.904,192H96v40H80v16h144v-16h-16
	v-40h45.56l-6.4,64h161.688l-6.4-64h15.648l58.72,190.856c2.112,6.872,3.184,14,3.184,21.176V464z"/>
<rect x="40" y="384" width="416" height="16"/>
<rect x="192" y="432" width="112" height="16"/>
<path d="M406.552,272H280v96h145.76L406.552,272z M398.248,312H376v-24h17.448L398.248,312z M336,312v-24h24v24H336z M360,328v24
	h-24v-24H360z M320,288v24h-24v-24H320z M296,328h24v24h-24V328z M376,352v-24h25.44l4.8,24H376z"/>
<path d="M216,272H89.448l-19.2,96H216V272z M200,312h-24v-24h24V312z M136,312v-24h24v24H136z M160,328v24h-24v-24H160z M120,288v24
	H97.752l4.8-24H120z M94.56,328H120v24H89.76L94.56,328z M176,352v-24h24v24H176z"/>
<rect x="128" y="112" width="48" height="16"/>
<rect x="128" y="144" width="48" height="16"/>
<rect x="128" y="176" width="48" height="16"/>
<path d="M256,96h144V32H256V96z M272,48h112v32H272V48z"/>
<rect x="288" y="200" width="16" height="16"/>
<rect x="352" y="200" width="16" height="16"/>
<rect x="240" y="352" width="16" height="16"/>
<rect x="240" y="312" width="16" height="16"/>
<rect x="240" y="272" width="16" height="16"/>
<g>
</g>
<g>
</g>
<g>
</g>
<g>
</g>
<g>
</g>
<g>
</g>
<g>
</g>
<g>
</g>
<g>
</g>
<g>
</g>
<g>
</g>
<g>
</g>
<g>
</g>
<g>
</g>
<g>
</g>
</svg>
