<?xml version="1.0"?>
<svg xmlns="http://www.w3.org/2000/svg" height="512px" viewBox="-21 0 480 480.04816" width="512px" class=""><g><path d="m344.023438 336.046875h-108.160157l40.640625 10.882813c9.730469 2.652343 16.78125 11.074218 17.679688 21.117187.082031 1.253906.082031 2.507813 0 3.761719l6.480468-3.761719 55.441407-32 2.160156-1.277344c-1.976563.835938-4.097656 1.273438-6.242187 1.277344zm0 0" fill="#603913" data-original="#603913"/><path d="m426.265625 323.25c-2.367187-4.144531-5.941406-7.464844-10.242187-9.523438-1.921876-.949218-3.96875-1.625-6.078126-2-5.617187-1.09375-11.441406-.128906-16.402343 2.722657l-32.160157 18.558593-2.796874 1.601563c-.160157.078125-.242188.160156-.320313.160156l-2.160156 1.277344-55.441407 32-6.480468 3.761719c.082031-1.253906.082031-2.507813 0-3.761719-.898438-10.042969-7.949219-18.464844-17.679688-21.117187l-40.640625-10.882813-19.839843-5.277344-23.359376-6.242187-12.558593-3.359375c-2.714844-.730469-5.511719-1.105469-8.320313-1.121094h-50.800781c-5.804687.003906-11.5 1.582031-16.480469 4.5625l-32.480468 19.4375v96.160156l34.402343 13.601563c3.738281 1.496094 7.730469 2.253906 11.757813 2.238281h128.71875c5.964844.003906 11.8125-1.660156 16.882812-4.796875l153.757813-95.203125c7.40625-4.300781 11.953125-12.234375 11.921875-20.796875-.011719-4.210938-1.113282-8.347656-3.199219-12zm0 0" fill="#ebe5dd" data-original="#EBE5DD"/><path d="m352.023438 288.046875h-144c-8.824219.027344-15.972657 7.175781-16 16v16c.003906 1.515625.222656 3.023437.640624 4.480469l23.359376 6.242187 19.839843 5.277344h116.160157c2.144531-.003906 4.265624-.441406 6.242187-1.277344.078125 0 .160156-.082031.320313-.160156l2.796874-1.601563c4.160157-3.011718 6.625-7.828124 6.640626-12.960937v-16c-.027344-8.824219-7.171876-15.972656-16-16zm0 0" fill="#8b5e3c" data-original="#8B5E3C"/><path d="m8.023438 312.046875v160h64v-160zm0 0" fill="#005ece" data-original="#005ECE"/><path d="m320.023438 240.046875h-144c-8.835938 0-16 7.164063-16 16v16c0 8.835937 7.164062 16 16 16h144c8.835937 0 16-7.164063 16-16v-16c0-8.835937-7.164063-16-16-16zm0 0" fill="#a97c50" data-original="#A97C50"/><path d="m352.023438 192.046875h-144c-8.835938 0-16 7.164063-16 16v16c0 8.835937 7.164062 16 16 16h144c8.835937 0 16-7.164063 16-16v-16c0-8.835937-7.164063-16-16-16zm0 0" fill="#c49a6c" data-original="#C49A6C"/><path d="m192.023438 96.046875c0 48.601563 39.398437 88 88 88v-176c-48.601563 0-88 39.398437-88 88zm0 0" fill="#ff9811" data-original="#FF9811"/><path d="m280.023438 8.046875v176c48.601562 0 88-39.398437 88-88s-39.398438-88-88-88zm0 0" fill="#ffab3c" data-original="#FFAB3C"/><path d="m433.199219 319.25c-3.148438-5.507812-7.890625-9.933594-13.597657-12.699219-2.578124-1.28125-5.320312-2.1875-8.152343-2.695312-7.503907-1.449219-15.277344-.15625-21.90625 3.648437l-13.519531 7.816406v-11.273437c0-13.253906-10.746094-24-24-24h-9.472657c.949219-2.5625 1.445313-5.265625 1.472657-8v-16c-.027344-2.730469-.523438-5.4375-1.472657-8h9.472657c13.253906 0 24-10.742187 24-24v-16c0-13.253906-10.746094-24-24-24h-33.742188c41.71875-18.125 64.992188-63.046875 55.734375-107.582031-9.257813-44.539063-48.503906-76.464844-93.992187-76.464844-45.488282 0-84.734376 31.925781-93.992188 76.464844-9.253906 44.535156 14.015625 89.457031 55.738281 107.582031h-33.746093c-13.253907 0-24 10.746094-24 24v16c.027343 2.734375.523437 5.4375 1.472656 8h-9.472656c-13.253907 0-24 10.746094-24 24v16c0 13.257813 10.746093 24 24 24h9.472656c-.949219 2.5625-1.445313 5.269531-1.472656 8v9.882813l-1.871094-.496094c-3.382813-.902344-6.867188-1.371094-10.367188-1.386719h-50.800781c-7.253906.007813-14.367187 1.976563-20.59375 5.699219l-20.367187 12.191406v-25.890625h-80.0000005v176h80.0000005v-28.078125l23.394531 9.246094c4.691406 1.894531 9.707031 2.855468 14.765625 2.832031h128.71875c7.453125.003906 14.753906-2.074219 21.089844-5.992187l153.601562-95.09375c9.886719-5.710938 15.949219-16.292969 15.871094-27.710938-.003906-5.617188-1.472656-11.132812-4.265625-16zm-233.175781-223.203125c0-44.179687 35.816406-80 80-80 44.183593 0 80 35.820313 80 80 0 44.183594-35.816407 80-80 80-44.160157-.046875-79.949219-35.835937-80-80zm100.242187 262.992187c-2.378906-6.164062-6.59375-11.445312-12.074219-15.136718l38.152344.089844zm-100.242187-134.992187v-16c0-4.417969 3.582031-8 8-8h144c4.417968 0 8 3.582031 8 8v16c0 4.417969-3.582032 8-8 8v-16h-16v16h-16v-16h-16v16h-16v-16h-16v16h-16v-16h-16v16h-16v-16h-16v16c-4.417969 0-8-3.582031-8-8zm-32 48v-16c0-4.417969 3.582031-8 8-8h144c4.417968 0 8 3.582031 8 8v16c0 4.417969-3.582032 8-8 8v-16h-16v16h-16v-16h-16v16h-16v-16h-16v16h-16v-16h-16v16h-16v-16h-16v16c-4.417969 0-8-3.582031-8-8zm32 32c0-4.417969 3.582031-8 8-8h144c4.417968 0 8 3.582031 8 8v16c-.023438 2.445313-1.148438 4.753906-3.0625 6.273437l-1.96875 1.136719c-.941407.382813-1.949219.585938-2.96875.589844v-16h-16v16h-16v-16h-16v16h-16v-16h-16v16h-16v-16h-16v16h-3.113282l-12.886718-3.429687v-12.570313h-16v8.296875l-8-2.136719zm-136 160h-48v-144h48zm349.3125-114.808594-153.769532 95.210938c-3.800781 2.355469-8.1875 3.601562-12.664062 3.597656h-128.71875c-3.015625.019531-6.003906-.550781-8.800782-1.679687l-29.359374-11.597657v-86.183593l28.578124-17.105469c3.742188-2.242188 8.019532-3.429688 12.382813-3.433594h50.800781c2.105469 0 4.207032.269531 6.246094.800781l96.394531 25.800782c6.445313 1.765624 11.136719 7.316406 11.796875 13.96875.058594.855468 0 2.789062 0 2.789062-.042968.976562-.195312 1.945312-.445312 2.890625-1.863282 6.914063-8.09375 11.753906-15.257813 11.839844-1.191406-.089844-5.894531-1.046875-9.269531-1.816407l-83.113281-22.238281-4.144531 15.453125 83.398437 22.3125c4.234375 1.125 8.550781 1.890625 12.914063 2.28125 14.457031-.023437 27.113281-9.722656 30.886718-23.679687.136719-.503907.136719-1.042969.242188-1.554688l96.117187-55.511719c3.320313-1.875 7.203125-2.507812 10.945313-1.773437 1.410156.253906 2.773437.707031 4.054687 1.34375 2.828125 1.347656 5.179688 3.523437 6.738281 6.238281 1.414063 2.449219 2.164063 5.226563 2.175782 8.058594.023437 5.789062-3.085938 11.140625-8.128906 13.988281zm0 0" data-original="#000000" class="active-path" style="fill:#12304C" data-old_color="#000000"/><path d="m288.023438 152.046875v-16.796875c13.929687-2.609375 24-11.816406 24-23.203125 0-13.460937-14.054688-24-32-24-9.765626 0-16-4.734375-16-8 0-3.261719 6.234374-8 16-8 9.769531 0 16 4.738281 16 8h16c0-11.367187-10.070313-20.574219-24-23.199219v-16.800781h-16v16.800781c-13.925782 2.609375-24 11.816406-24 23.199219 0 13.464844 14.058593 24 32 24 9.769531 0 16 4.738281 16 8 0 3.265625-6.230469 8-16 8-9.765626 0-16-4.734375-16-8h-16c0 11.371094 10.074218 20.578125 24 23.203125v16.796875zm0 0" data-original="#000000" class="active-path" style="fill:#12304C" data-old_color="#000000"/></g> </svg>
