<?xml version="1.0"?>
<svg xmlns="http://www.w3.org/2000/svg" height="512px" viewBox="-2 0 485 485.6" width="512px" class=""><g><path d="m72.300781 149.601562c-35.199219 0-64 10.398438-64 24v280c0 13.597657 28.800781 24 64 24s64-10.402343 64-24v-280c0-13.601562-28.800781-24-64-24zm0 0" fill="#f4a422" data-original="#F4A422" class=""/><path d="m304.300781 253.601562c0-13.601562-28.800781-24-64-24s-64 10.398438-64 24v200c0 13.597657 28.800781 24 64 24s64-10.402343 64-24zm0 0" fill="#f4a422" data-original="#F4A422" class=""/><path d="m304.300781 253.601562c0-13.257812-28.65625-24-64-24-35.347656 0-64 10.742188-64 24 0 13.253907 28.652344 24 64 24 35.34375 0 64-10.746093 64-24zm0 0" fill="#f4c167" data-original="#F4C167"/><path d="m480.300781 229.601562h-56v-16h40v-40h16zm0 0" fill="#5b4349" data-original="#5B4349" class=""/><path d="m466.699219 227.199219-154.398438-154.398438-64 64-125.601562-125.601562 11.199219-11.199219 114.402343 114.398438 64-64 165.597657 165.601562zm0 0" fill="#5b4349" data-original="#5B4349" class=""/><g fill="#e8821c"><path d="m72.300781 317.601562c-35.199219 0-64-10.402343-64-24v40c0 13.597657 28.800781 24 64 24s64-10.402343 64-24v-40c0 13.597657-28.800781 24-64 24zm0 0" data-original="#E8821C" class=""/><path d="m72.300781 397.601562c-35.199219 0-64-10.402343-64-24v40c0 13.597657 28.800781 24 64 24s64-10.402343 64-24v-40c0 13.597657-28.800781 24-64 24zm0 0" data-original="#E8821C" class=""/><path d="m72.300781 237.601562c-35.199219 0-64-10.402343-64-24v40c0 13.597657 28.800781 24 64 24s64-10.402343 64-24v-40c0 13.597657-28.800781 24-64 24zm0 0" data-original="#E8821C" class=""/><path d="m240.300781 397.601562c-35.199219 0-64-10.402343-64-24v40c0 13.597657 28.800781 24 64 24s64-10.402343 64-24v-40c0 13.597657-28.800781 24-64 24zm0 0" data-original="#E8821C" class=""/><path d="m240.300781 317.601562c-35.199219 0-64-10.402343-64-24v40c0 13.597657 28.800781 24 64 24s64-10.402343 64-24v-40c0 13.597657-28.800781 24-64 24zm0 0" data-original="#E8821C" class=""/></g><path d="m472.300781 453.601562c0 13.597657-28.800781 24-64 24s-64-10.402343-64-24v-160c0-13.601562 28.800781-24 64-24s64 10.398438 64 24zm0 0" fill="#f4a422" data-original="#F4A422" class=""/><path d="m408.300781 357.601562c-35.199219 0-64-10.402343-64-24v40c0 13.597657 28.800781 24 64 24s64-10.402343 64-24v-40c0 13.597657-28.800781 24-64 24zm0 0" fill="#e8821c" data-original="#E8821C" class=""/><path d="m394.699219 219.199219-82.398438-82.398438-64 64-53.601562-53.601562 11.199219-11.199219 42.402343 42.398438 64-64 93.597657 93.601562zm0 0" fill="#5b4349" data-original="#5B4349" class=""/><path d="m154.761719 107.378906 11.3125-11.3125 23.757812 23.757813-11.3125 11.3125zm0 0" fill="#5b4349" data-original="#5B4349" class=""/><path d="m472.300781 293.601562c0-13.257812-28.65625-24-64-24-35.347656 0-64 10.742188-64 24 0 13.253907 28.652344 24 64 24 35.34375 0 64-10.746093 64-24zm0 0" fill="#f4c167" data-original="#F4C167"/><path d="m408.300781 437.601562c-35.199219 0-64-10.402343-64-24v40c0 13.597657 28.800781 24 64 24s64-10.402343 64-24v-40c0 13.597657-28.800781 24-64 24zm0 0" fill="#e8821c" data-original="#E8821C" class=""/><path d="m136.300781 173.601562c0-13.257812-28.65625-24-64-24-35.347656 0-64 10.742188-64 24 0 13.253907 28.652344 24 64 24 35.34375 0 64-10.746093 64-24zm0 0" fill="#f4c167" data-original="#F4C167"/><path d="m136.300781 101.601562c0 35.34375-28.65625 64-64 64-35.347656 0-64-28.65625-64-64 0-35.347656 28.652344-64 64-64 35.34375 0 64 28.652344 64 64zm0 0" fill="#f4a422" data-original="#F4A422" class=""/><path d="m464.300781 173.601562v28.796876l-152-152-64 64-114.402343-114.398438-11.199219 11.199219 125.601562 125.601562 64-64 140.800781 140.800781h-28.800781v16h56v-56zm0 0" data-original="#000000" class="active-path" style="fill:#12304C" data-old_color="#000000"/><path d="m72.300781 29.601562c-40 0-72 32-72 72 0 18.398438 7.199219 36 20 49.597657-12.800781 5.601562-20 13.601562-20 22.402343v280c0 20.796876 36 32 72 32s72-11.203124 72-32v-280c0-8.800781-7.199219-16.800781-20-22.402343 27.199219-28.800781 26.398438-74.398438-2.402343-101.597657-13.597657-12.800781-31.199219-20-49.597657-20zm0 16c31.199219 0 56 24.796876 56 56 0 31.199219-24.800781 56-56 56s-56-24.800781-56-56c0-31.203124 24.800781-56 56-56zm0 424c-36 0-56-11.203124-56-16v-19.203124c17.597657 8 36.800781 12 56 11.203124 19.199219.796876 38.398438-3.203124 56-11.203124v19.203124c0 4.796876-20 16-56 16zm0-40c-36 0-56-11.203124-56-16v-19.203124c17.597657 8 36.800781 12 56 11.203124 19.199219.796876 38.398438-3.203124 56-11.203124v19.203124c0 4.796876-20 16-56 16zm0-40c-36 0-56-11.203124-56-16v-19.203124c17.597657 8 36.800781 12 56 11.203124 19.199219.796876 38.398438-3.203124 56-11.203124v19.203124c0 4.796876-20 16-56 16zm0-40c-36 0-56-11.203124-56-16v-19.203124c17.597657 8 36.800781 12 56 11.203124 19.199219.796876 38.398438-3.203124 56-11.203124v19.203124c0 4.796876-20 16-56 16zm0-40c-36 0-56-11.203124-56-16v-19.203124c17.597657 8 36.800781 12 56 11.203124 19.199219.796876 38.398438-3.203124 56-11.203124v19.203124c0 4.796876-20 16-56 16zm0-40c-36 0-56-11.203124-56-16v-19.203124c17.597657 8 36.800781 12 56 11.203124 19.199219.796876 38.398438-3.203124 56-11.203124v19.203124c0 4.796876-20 16-56 16zm0-40c-36 0-56-11.203124-56-16v-19.203124c17.597657 8 36.800781 12 56 11.203124 19.199219.796876 38.398438-3.203124 56-11.203124v19.203124c0 4.796876-20 16-56 16zm56-56c0 4.796876-20 16-56 16s-56-11.203124-56-16c0-1.601562 4.800781-7.203124 17.597657-11.203124 23.203124 14.402343 52.800781 14.402343 76 0 13.601562 4 18.402343 9.601562 18.402343 11.203124zm0 0" data-original="#000000" class="active-path" style="fill:#12304C" data-old_color="#000000"/><path d="m240.300781 221.601562c-36 0-72 11.199219-72 32v200c0 20.796876 36 32 72 32s72-11.203124 72-32v-200c0-20.800781-36-32-72-32zm0 248c-36 0-56-11.203124-56-16v-19.203124c17.597657 8 36.800781 12 56 11.203124 19.199219.796876 38.398438-3.203124 56-11.203124v19.203124c0 4.796876-20 16-56 16zm0-40c-36 0-56-11.203124-56-16v-19.203124c17.597657 8 36.800781 12 56 11.203124 19.199219.796876 38.398438-3.203124 56-11.203124v19.203124c0 4.796876-20 16-56 16zm0-40c-36 0-56-11.203124-56-16v-19.203124c17.597657 8 36.800781 12 56 11.203124 19.199219.796876 38.398438-3.203124 56-11.203124v19.203124c0 4.796876-20 16-56 16zm0-40c-36 0-56-11.203124-56-16v-19.203124c17.597657 8 36.800781 12 56 11.203124 19.199219.796876 38.398438-3.203124 56-11.203124v19.203124c0 4.796876-20 16-56 16zm0-40c-36 0-56-11.203124-56-16v-19.203124c17.597657 8 36.800781 12 56 11.203124 19.199219.796876 38.398438-3.203124 56-11.203124v19.203124c0 4.796876-20 16-56 16zm0-40c-36 0-56-11.203124-56-16 0-4.800781 20-16 56-16s56 11.199219 56 16c0 4.796876-20 16-56 16zm0 0" data-original="#000000" class="active-path" style="fill:#12304C" data-old_color="#000000"/><path d="m408.300781 261.601562c-36 0-72 11.199219-72 32v160c0 20.796876 36 32 72 32s72-11.203124 72-32v-160c0-20.800781-36-32-72-32zm0 208c-36 0-56-11.203124-56-16v-19.203124c17.597657 8 36.800781 12 56 11.203124 19.199219.796876 38.398438-3.203124 56-11.203124v19.203124c0 4.796876-20 16-56 16zm0-40c-36 0-56-11.203124-56-16v-19.203124c17.597657 8 36.800781 12 56 11.203124 19.199219.796876 38.398438-3.203124 56-11.203124v19.203124c0 4.796876-20 16-56 16zm0-40c-36 0-56-11.203124-56-16v-19.203124c17.597657 8 36.800781 12 56 11.203124 19.199219.796876 38.398438-3.203124 56-11.203124v19.203124c0 4.796876-20 16-56 16zm0-40c-36 0-56-11.203124-56-16v-19.203124c17.597657 8 36.800781 12 56 11.203124 19.199219.796876 38.398438-3.203124 56-11.203124v19.203124c0 4.796876-20 16-56 16zm0-40c-36 0-56-11.203124-56-16 0-4.800781 20-16 56-16s56 11.199219 56 16c0 4.796876-20 16-56 16zm0 0" data-original="#000000" class="active-path" style="fill:#12304C" data-old_color="#000000"/><path d="m405.898438 208-93.597657-93.601562-64 64-42.402343-42.398438-11.199219 11.199219 53.601562 53.601562 64-64 82.398438 82.398438zm0 0" data-original="#000000" class="active-path" style="fill:#12304C" data-old_color="#000000"/><path d="m154.761719 107.378906 11.3125-11.3125 23.757812 23.757813-11.3125 11.3125zm0 0" data-original="#000000" class="active-path" style="fill:#12304C" data-old_color="#000000"/></g> </svg>
