<?xml version="1.0"?>
<svg xmlns="http://www.w3.org/2000/svg" id="Layer_1" height="512px" viewBox="0 0 128 128" width="512px" data-name="Layer 1" class=""><g><path d="m94.962 121.5h-79.616v-37.5a20 20 0 0 1 20-20h39.616a20 20 0 0 1 20 20z" fill="#4e8ed5" data-original="#4E8ED5" class="active-path" style="fill:#FF8C00" data-old_color="#4e8ed5"/><circle cx="55.154" cy="39.25" fill="#f2f2f2" r="32.75" data-original="#F2F2F2" class=""/><path d="m21.346 113.25a1.75 1.75 0 0 1 -1.75-1.75v-19.062a1.75 1.75 0 0 1 3.5 0v19.062a1.75 1.75 0 0 1 -1.75 1.75z" fill="#12304c" data-original="#12304C"/><circle cx="92.75" cy="85.127" fill="#1bce89" r="19.904" data-original="#1BCE89" class="" style="fill:#1BCE89"/><path d="m102.75 82.127h-7v-7h-6v7h-7v6h7v7h6v-7h7z" fill="#f2f2f2" data-original="#F2F2F2" class=""/><g fill="#12304c"><path d="m73.758 14.451a31.41 31.41 0 0 1 2.7 2.274 1.75 1.75 0 0 0 2.4-2.543 35.044 35.044 0 0 0 -3-2.529 1.75 1.75 0 1 0 -2.1 2.8z" data-original="#12304C"/><path d="m114.4 85.127a21.582 21.582 0 0 0 -3.4-11.66 1.75 1.75 0 0 0 -2.947 1.887 18.15 18.15 0 1 1 -5.432-5.466 1.75 1.75 0 1 0 1.905-2.936 21.654 21.654 0 0 0 -19.309-2.125 21.553 21.553 0 0 0 -4.982-1.927 34.459 34.459 0 0 0 4.406-41.571 1.75 1.75 0 1 0 -2.989 1.82 30.961 30.961 0 1 1 -13.444-12.025 1.75 1.75 0 0 0 1.475-3.174 34.486 34.486 0 0 0 -39.594 54.97 21.839 21.839 0 0 0 -16.489 21.08v10.583a1.75 1.75 0 0 0 3.5 0v-10.583a18.3 18.3 0 0 1 16.165-18.1 34.431 34.431 0 0 0 43.794-.013 17.786 17.786 0 0 1 4.118.956 21.645 21.645 0 0 0 11.573 39.938c.154 0 .306-.008.46-.012v12.98h-76.11v-17.249a1.75 1.75 0 0 0 -3.5 0v19a1.75 1.75 0 0 0 1.75 1.75h79.61a1.75 1.75 0 0 0 1.75-1.75v-15.088a21.685 21.685 0 0 0 17.69-21.285z" data-original="#12304C"/><path d="m89.75 96.877h6a1.75 1.75 0 0 0 1.75-1.75v-5.25h5.25a1.75 1.75 0 0 0 1.75-1.75v-6a1.75 1.75 0 0 0 -1.75-1.75h-5.25v-5.25a1.75 1.75 0 0 0 -1.75-1.75h-6a1.75 1.75 0 0 0 -1.75 1.75v5.25h-5.25a1.75 1.75 0 0 0 -1.75 1.75v6a1.75 1.75 0 0 0 1.75 1.75h5.25v5.25a1.75 1.75 0 0 0 1.75 1.75zm-5.25-10.5v-2.5h5.25a1.75 1.75 0 0 0 1.75-1.75v-5.25h2.5v5.25a1.75 1.75 0 0 0 1.75 1.75h5.25v2.5h-5.25a1.75 1.75 0 0 0 -1.75 1.75v5.25h-2.5v-5.25a1.75 1.75 0 0 0 -1.75-1.75z" data-original="#12304C"/></g></g> </svg>
