<?xml version="1.0"?>
<svg xmlns="http://www.w3.org/2000/svg" id="Layer_1" height="512px" viewBox="0 0 128 128" width="512px" data-name="Layer 1" class="hovered-paths"><g><path d="m90.91 51.75v-13.33c-35.3 5.08-61.39 30.92-54.91 65.39-13.9-17.19-15.36-80.38 54.91-84.98v-12.33l30.59 22.62z" fill="#e97b83" data-original="#E97B83" class="hovered-path active-path" style="fill:#FF8C00" data-old_color="#e97b83"/><g fill="#3c4176"><path d="m53.2 52.476c-1.13.928-2.23 1.9-3.272 2.889a1.75 1.75 0 1 0 2.413 2.535c.982-.931 2.02-1.848 3.084-2.723a1.75 1.75 0 1 0 -2.221-2.7z" data-original="#3C4176" class="" style="fill:#12304C" data-old_color="#3C4176"/><path d="m122.54 27.713-12.885-9.527a1.75 1.75 0 1 0 -2.08 2.814l10.982 8.121-25.897 19.157v-9.858a1.749 1.749 0 0 0 -2-1.732 79.2 79.2 0 0 0 -31.137 11.212 1.75 1.75 0 0 0 1.882 2.951 75.093 75.093 0 0 1 27.755-10.387v11.286a1.75 1.75 0 0 0 2.791 1.407l30.59-22.63a1.75 1.75 0 0 0 0-2.814z" data-original="#3C4176" class="" style="fill:#12304C" data-old_color="#3C4176"/><path d="m31.643 52.5c-8.546 19.515-5.1 42.4 3 52.411a1.751 1.751 0 0 0 3.081-1.424c-2.811-14.95.554-28.881 9.731-40.286a1.75 1.75 0 1 0 -2.726-2.2 50.81 50.81 0 0 0 -11.45 34.089c-3.8-10.306-4.923-26.359 1.57-41.186 6.1-13.925 20.793-31.011 56.175-33.328a1.75 1.75 0 0 0 1.636-1.746v-8.859l8.427 6.231a1.75 1.75 0 0 0 2.08-2.815l-11.217-8.294a1.75 1.75 0 0 0 -2.79 1.407v10.7c-35.96 2.853-51.127 20.705-57.517 35.3z" data-original="#3C4176" class="" style="fill:#12304C" data-old_color="#3C4176"/><path d="m103.81 51.65a1.75 1.75 0 0 0 -1.75 1.75v66.35h-93.81v-93.81h37.55a1.75 1.75 0 0 0 0-3.5h-39.3a1.751 1.751 0 0 0 -1.75 1.75v97.31a1.751 1.751 0 0 0 1.75 1.75h97.31a1.751 1.751 0 0 0 1.75-1.75v-68.1a1.751 1.751 0 0 0 -1.75-1.75z" data-original="#3C4176" class="" style="fill:#12304C" data-old_color="#3C4176"/></g></g> </svg>
